Coordinates
version=1
nRows=13
nColumns=22
inDegrees=yes

Units are S.I. units (second, meters, Newtons, ...)
If the header above contains a line with 'inDegrees', this indicates whether rotational values are in degrees (yes) or radians (no).

endheader
time	pelvis_tilt	pelvis_list	pelvis_rotation	pelvis_tx	pelvis_ty	pelvis_tz	hip_flexion_r	hip_adduction_r	hip_rotation_r	knee_angle_r	ankle_angle_r	subtalar_angle_r	hip_flexion_l	hip_adduction_l	hip_rotation_l	knee_angle_l	ankle_angle_l	subtalar_angle_l	lumbar_extension	lumbar_bending	lumbar_rotation
      5.85000000	      0.24401378	      0.17944045	    294.29930888	     -0.67486858	      1.00980854	      0.67827155	     22.19964335	     -8.61533253	     -2.77146302	    -47.40295799	      9.16716276	      7.74079757	      6.19149587	      7.36814680	    -11.93598878	    -14.53556227	      8.80962867	    -16.55433802	     -3.44209655	     -5.70343967	     -3.75254313
      5.86000000	      0.22195871	      0.25124668	    295.65122418	     -0.66996188	      1.00970351	      0.68442999	     22.90163012	     -8.49837105	     -2.38219563	    -45.83167791	      9.30042502	      7.83674414	      5.58411202	      7.54454798	    -10.69179612	    -14.25464055	      9.00330513	    -16.58321020	     -3.43662872	     -5.58156721	     -4.12590403
      5.87000000	      0.20506919	      0.32685227	    296.98354286	     -0.66507210	      1.00952495	      0.69061352	     23.56551575	     -8.38836570	     -1.91786824	    -44.22321988	      9.31729371	      8.03175318	      4.98022228	      7.70111937	     -9.43905499	    -13.99260350	      9.20620074	    -16.63156197	     -3.41571345	     -5.47342338	     -4.47315569
      5.88000000	      0.19308339	      0.39713806	    298.29254366	     -0.66019207	      1.00928211	      0.69684967	     24.17880268	     -8.28023635	     -1.38042783	    -42.57948514	      9.24028772	      8.32091874	      4.37232325	      7.83171335	     -8.18818962	    -13.75210338	      9.42875070	    -16.68954407	     -3.38726251	     -5.37622279	     -4.78823070
      5.89000000	      0.19089538	      0.44422350	    299.56843834	     -0.65531498	      1.00899210	      0.70318404	     24.71473107	     -8.16662231	     -0.76584362	    -40.89608561	      9.12513497	      8.75139294	      3.73864657	      7.93058820	     -6.95683651	    -13.53018842	      9.68125764	    -16.75940469	     -3.36667979	     -5.28371694	     -5.05899146
      5.90000000	      0.19538574	      0.52263638	    300.82669455	     -0.65041974	      1.00857714	      0.70958215	     25.23425652	     -8.08780393	     -0.11369819	    -39.18341039	      8.87490651	      9.12658861	      3.13434856	      8.02477951	     -5.74383066	    -13.32581461	      9.95626658	    -16.79185531	     -3.30227182	     -5.22095748	     -5.33257791
      5.91000000	      0.21763729	      0.56074269	    302.04171800	     -0.64556540	      1.00813367	      0.71610755	     25.64787182	     -8.00235041	      0.59653802	    -37.41906389	      8.66462955	      9.66761831	      2.48690955	      8.08166052	     -4.55674750	    -13.14400974	     10.26682268	    -16.81877265	     -3.27474944	     -5.16471581	     -5.54837966
      5.92000000	      0.25493148	      0.60668317	    303.22828914	     -0.64072683	      1.00760343	      0.72272841	     26.00857207	     -7.94872301	      1.32628238	    -35.61435316	      8.38372309	     10.24125246	      1.83743557	      8.12566801	     -3.41805012	    -12.96681532	     10.59948534	    -16.81622881	     -3.23606153	     -5.13383811	     -5.76333771
      5.93000000	      0.30322143	      0.65187760	    304.38907557	     -0.63595959	      1.00699166	      0.72940601	     26.30967544	     -7.92068120	      2.05609201	    -33.76790102	      8.05952324	     10.82373089	      1.20018100	      8.14789514	     -2.30492511	    -12.82855523	     10.94296604	    -16.78609923	     -3.20670263	     -5.12458535	     -5.96256969
      5.94000000	      0.36880480	      0.69125551	    305.50841257	     -0.63125942	      1.00631994	      0.73616910	     26.53955684	     -7.91957436	      2.78737191	    -31.87542056	      7.70603271	     11.50828284	      0.54877588	      8.15131218	     -1.25333207	    -12.69104789	     11.30771034	    -16.72247923	     -3.19140921	     -5.13640568	     -6.15076061
      5.95000000	      0.43922159	      0.73508220	    306.60375949	     -0.62663300	      1.00556975	      0.74295998	     26.71353356	     -7.95134547	      3.48800242	    -29.94079295	      7.29509333	     12.21839060	     -0.07771838	      8.13379997	     -0.22726455	    -12.59554870	     11.67250993	    -16.63095685	     -3.18444414	     -5.16397028	     -6.32383337
      5.96000000	      0.50792880	      0.77656448	    307.68484441	     -0.62200507	      1.00475297	      0.74977961	     26.82092480	     -8.01697278	      4.13191415	    -27.96210714	      6.85162379	     12.94116333	     -0.69165017	      8.09126007	      0.78449863	    -12.52677866	     12.05453453	    -16.52182390	     -3.18026638	     -5.18633494	     -6.51231539
      5.97000000	      0.57296763	      0.81807480	    308.74958412	     -0.61737321	      1.00387402	      0.75663908	     26.87056301	     -8.11351811	      4.72822279	    -25.95351368	      6.36144395	     13.69971141	     -1.28853729	      8.02455692	      1.78062386	    -12.48723930	     12.44005891	    -16.39323237	     -3.17430232	     -5.20561947	     -6.69855661
